<svg width="32" height="40" viewBox="0 0 32 40" fill="none" xmlns="http://www.w3.org/2000/svg">
<path d="M26 14H10V10C10 8.4 10.6 7 11.8 5.8C14.2 3.4 18 3.4 20.2 5.8C21 6.6 21.4 7.6 21.8 8.6C22 9.6 23.2 10.2 24.2 10C25.2 9.8 26 8.6 25.6 7.6C25.2 5.8 24.2 4.2 23 3C21.2 1 18.6 0 16 0C10.4 0 6 4.4 6 10V14C2.6 14 0 16.6 0 20V34C0 37.4 2.6 40 6 40H26C29.4 40 32 37.4 32 34V20C32 16.6 29.4 14 26 14ZM18.2 27L18 27.2V30C18 31.2 17.2 32 16 32C14.8 32 14 31.2 14 30V27.2C12.8 26 12.6 24.2 13.8 23C15 21.8 16.8 21.6 18 22.8C19.2 23.8 19.4 25.8 18.2 27Z" fill="black"/>
</svg>
