<svg width="40" height="40" viewBox="0 0 40 40" fill="none" xmlns="http://www.w3.org/2000/svg">
<path fill-rule="evenodd" clip-rule="evenodd" d="M0 30.5556C0 33.3333 2.77778 33.3333 2.77778 33.3333H17.7266C17.0478 31.9503 16.6667 30.3946 16.6667 28.75C16.6667 24.9855 18.6637 21.6873 21.6561 19.8572C20.1779 19.593 18.5213 19.4444 16.6667 19.4444C2.77778 19.4444 0 27.7778 0 30.5556ZM22.5592 14.2259C20.9964 15.7887 18.8768 16.6667 16.6667 16.6667C14.4565 16.6667 12.3369 15.7887 10.7741 14.2259C9.21131 12.6631 8.33333 10.5435 8.33333 8.33333C8.33333 6.1232 9.21131 4.00358 10.7741 2.44078C12.3369 0.877974 14.4565 0 16.6667 0C18.8768 0 20.9964 0.877974 22.5592 2.44078C24.122 4.00358 25 6.1232 25 8.33333C25 10.5435 24.122 12.6631 22.5592 14.2259Z" fill="black"/>
<path d="M31.4128 20.5338C30.875 18.7109 28.2917 18.7109 27.7539 20.5338L27.6237 20.9765C27.5434 21.2494 27.403 21.5009 27.2128 21.7125C27.0226 21.9241 26.7875 22.0904 26.5246 22.1993C26.2618 22.3081 25.9779 22.3568 25.6938 22.3417C25.4097 22.3266 25.1326 22.2481 24.8828 22.1119L24.4792 21.8906C22.8086 20.9817 20.9818 22.8086 21.8919 24.4778L22.112 24.8828C22.6927 25.9505 22.1419 27.2799 20.9766 27.6237L20.5339 27.7539C18.711 28.2916 18.711 30.875 20.5339 31.4127L20.9766 31.5429C21.2495 31.6233 21.501 31.7637 21.7125 31.9539C21.9241 32.1441 22.0904 32.3792 22.1993 32.642C22.3082 32.9049 22.3569 33.1887 22.3418 33.4728C22.3267 33.7569 22.2481 34.034 22.112 34.2838L21.8906 34.6875C20.9818 36.358 22.8086 38.1849 24.4779 37.2747L24.8828 37.0546C25.1326 36.9185 25.4097 36.84 25.6938 36.8249C25.9779 36.8098 26.2618 36.8584 26.5246 36.9673C26.7875 37.0762 27.0226 37.2425 27.2128 37.4541C27.403 37.6657 27.5434 37.9172 27.6237 38.1901L27.7539 38.6328C28.2917 40.4557 30.875 40.4557 31.4128 38.6328L31.543 38.1901C31.6233 37.9172 31.7638 37.6657 31.9539 37.4541C32.1441 37.2425 32.3793 37.0762 32.6421 36.9673C32.9049 36.8584 33.1888 36.8098 33.4729 36.8249C33.757 36.84 34.0341 36.9185 34.2839 37.0546L34.6875 37.276C36.3581 38.1849 38.1849 36.358 37.2748 34.6888L37.0547 34.2838C36.9186 34.034 36.8401 33.7569 36.8249 33.4728C36.8098 33.1887 36.8585 32.9049 36.9674 32.642C37.0763 32.3792 37.2426 32.1441 37.4542 31.9539C37.6657 31.7637 37.9172 31.6233 38.1901 31.5429L38.6328 31.4127C40.4557 30.875 40.4557 28.2916 38.6328 27.7539L38.1901 27.6237C37.9172 27.5433 37.6657 27.4029 37.4542 27.2127C37.2426 27.0225 37.0763 26.7874 36.9674 26.5246C36.8585 26.2617 36.8098 25.9779 36.8249 25.6938C36.8401 25.4097 36.9186 25.1326 37.0547 24.8828L37.2761 24.4791C38.1849 22.8086 36.3581 20.9817 34.6888 21.8919L34.2839 22.1119C34.0341 22.2481 33.757 22.3266 33.4729 22.3417C33.1888 22.3568 32.9049 22.3081 32.6421 22.1993C32.3793 22.0904 32.1441 21.9241 31.9539 21.7125C31.7638 21.5009 31.6233 21.2494 31.543 20.9765L31.4128 20.5338ZM29.5834 33.3984C28.5715 33.3984 27.6011 32.9964 26.8857 32.281C26.1702 31.5655 25.7682 30.5951 25.7682 29.5833C25.7682 28.5715 26.1702 27.6011 26.8857 26.8856C27.6011 26.1701 28.5715 25.7682 29.5834 25.7682C30.5948 25.7682 31.5649 26.17 32.2801 26.8852C32.9953 27.6005 33.3972 28.5705 33.3972 29.582C33.3972 30.5935 32.9953 31.5635 32.2801 32.2788C31.5649 32.994 30.5948 33.3958 29.5834 33.3958V33.3984Z" fill="black"/>
</svg>
