<svg width="40" height="40" viewBox="0 0 40 40" fill="none" xmlns="http://www.w3.org/2000/svg">
<mask id="path-1-inside-1_19_90" fill="white">
<path fill-rule="evenodd" clip-rule="evenodd" d="M20.1454 27.4011C25.1798 29.2862 31.0725 28.2041 35.1217 24.155C40.6474 18.6292 40.6474 9.67013 35.1217 4.14434C29.5959 -1.38145 20.6368 -1.38145 15.111 4.14434C10.623 8.63239 9.7801 15.3853 12.5825 20.724L0 32.9252V40H6.60322V35.2835H12.263L12.2631 35.2834V30.5669H16.9796L20.1454 27.4011ZM32.4535 12.1486C30.98 13.6221 28.5909 13.6221 27.1174 12.1486C25.6438 10.675 25.6438 8.28596 27.1174 6.81241C28.5909 5.33887 30.98 5.33887 32.4535 6.81241C33.9271 8.28596 33.9271 10.675 32.4535 12.1486Z"/>
</mask>
<path fill-rule="evenodd" clip-rule="evenodd" d="M20.1454 27.4011C25.1798 29.2862 31.0725 28.2041 35.1217 24.155C40.6474 18.6292 40.6474 9.67013 35.1217 4.14434C29.5959 -1.38145 20.6368 -1.38145 15.111 4.14434C10.623 8.63239 9.7801 15.3853 12.5825 20.724L0 32.9252V40H6.60322V35.2835H12.263L12.2631 35.2834V30.5669H16.9796L20.1454 27.4011ZM32.4535 12.1486C30.98 13.6221 28.5909 13.6221 27.1174 12.1486C25.6438 10.675 25.6438 8.28596 27.1174 6.81241C28.5909 5.33887 30.98 5.33887 32.4535 6.81241C33.9271 8.28596 33.9271 10.675 32.4535 12.1486Z" fill="black"/>
<path d="M20.1454 27.4011L20.3207 26.9329L20.0194 26.82L19.7918 27.0476L20.1454 27.4011ZM35.1217 24.155L35.4752 24.5085L35.1217 24.155ZM35.1217 4.14434L34.7681 4.49789L35.1217 4.14434ZM15.111 4.14434L15.4646 4.49789L15.111 4.14434ZM12.5825 20.724L12.9305 21.083L13.199 20.8227L13.0252 20.4916L12.5825 20.724ZM0 32.9252L-0.348073 32.5662L-0.5 32.7136V32.9252H0ZM0 40H-0.5V40.5H0V40ZM6.60322 40V40.5H7.10322V40H6.60322ZM6.60322 35.2835V34.7835H6.10322V35.2835H6.60322ZM12.263 35.2835V35.7835H12.4701L12.6165 35.6371L12.263 35.2835ZM12.2631 35.2834L12.6166 35.637L12.7631 35.4905V35.2834H12.2631ZM12.2631 30.5669V30.0669H11.7631V30.5669H12.2631ZM16.9796 30.5669V31.0669H17.1867L17.3331 30.9205L16.9796 30.5669ZM27.1174 12.1486L27.4709 11.795L27.1174 12.1486ZM32.4535 12.1486L32.1 11.795L32.4535 12.1486ZM32.4535 6.81241L32.1 7.16597L32.4535 6.81241ZM19.9701 27.8694C25.1813 29.8206 31.2824 28.7013 35.4752 24.5085L34.7681 23.8014C30.8626 27.707 25.1784 28.7517 20.3207 26.9329L19.9701 27.8694ZM35.4752 24.5085C41.1963 18.7875 41.1963 9.51184 35.4752 3.79079L34.7681 4.49789C40.0986 9.82842 40.0986 18.4709 34.7681 23.8014L35.4752 24.5085ZM35.4752 3.79079C29.7542 -1.93026 20.4785 -1.93026 14.7575 3.79079L15.4646 4.49789C20.7951 -0.832631 29.4376 -0.832631 34.7681 4.49789L35.4752 3.79079ZM14.7575 3.79079C10.1103 8.43797 9.23858 15.4294 12.1397 20.9564L13.0252 20.4916C10.3216 15.3412 11.1356 8.82682 15.4646 4.49789L14.7575 3.79079ZM0.348073 33.2841L12.9305 21.083L12.2344 20.3651L-0.348073 32.5662L0.348073 33.2841ZM0.5 40V32.9252H-0.5V40H0.5ZM6.60322 39.5H0V40.5H6.60322V39.5ZM6.10322 35.2835V40H7.10322V35.2835H6.10322ZM12.263 34.7835H6.60322V35.7835H12.263V34.7835ZM11.9095 34.9299L11.9094 34.93L12.6165 35.6371L12.6166 35.637L11.9095 34.9299ZM11.7631 30.5669V35.2834H12.7631V30.5669H11.7631ZM16.9796 30.0669H12.2631V31.0669H16.9796V30.0669ZM19.7918 27.0476L16.626 30.2134L17.3331 30.9205L20.499 27.7547L19.7918 27.0476ZM26.7638 12.5021C28.4326 14.1709 31.1383 14.1709 32.8071 12.5021L32.1 11.795C30.8217 13.0733 28.7492 13.0733 27.4709 11.795L26.7638 12.5021ZM26.7638 6.45886C25.095 8.12767 25.095 10.8333 26.7638 12.5021L27.4709 11.795C26.1926 10.5168 26.1926 8.44425 27.4709 7.16597L26.7638 6.45886ZM32.8071 6.45886C31.1383 4.79006 28.4326 4.79005 26.7638 6.45886L27.4709 7.16597C28.7492 5.88769 30.8217 5.88769 32.1 7.16597L32.8071 6.45886ZM32.8071 12.5021C34.4759 10.8333 34.4759 8.12767 32.8071 6.45886L32.1 7.16597C33.3783 8.44425 33.3783 10.5168 32.1 11.795L32.8071 12.5021Z" fill="black" mask="url(#path-1-inside-1_19_90)"/>
</svg>
